<svg width="28" height="29" viewBox="0 0 28 29" fill="none" xmlns="http://www.w3.org/2000/svg">
<path d="M25 3.22363H22V1.20607C22 0.648915 21.5523 0.197266 21 0.197266C20.4477 0.197266 20 0.648915 20 1.20607V3.22363H7.99998V1.20607C7.99998 0.648915 7.55226 0.197266 7.00001 0.197266C6.44777 0.197266 6 0.648915 6 1.20607V3.22363H3C1.34314 3.22363 0 4.57858 0 6.25V25.417C0 27.0884 1.34314 28.4434 3 28.4434H25C26.6569 28.4434 28 27.0884 28 25.417V6.25C28 4.57858 26.6569 3.22363 25 3.22363ZM26 25.417C26 25.9742 25.5522 26.4258 24.9999 26.4258H3C2.44769 26.4258 1.99998 25.9742 1.99998 25.417V12.3027H26V25.417ZM26 10.2852H1.99998V6.25C1.99998 5.69284 2.44769 5.24119 3 5.24119H6V7.25875C6 7.8159 6.44771 8.26755 7.00001 8.26755C7.55232 8.26755 8.00003 7.8159 8.00003 7.25875V5.24119H20V7.25875C20 7.8159 20.4477 8.26755 21 8.26755C21.5523 8.26755 22.0001 7.8159 22.0001 7.25875V5.24119H25.0001C25.5524 5.24119 26.0001 5.69284 26.0001 6.25V10.2852H26Z" fill="white"/>
</svg>
