<svg width="28" height="28" viewBox="0 0 28 28" fill="none" xmlns="http://www.w3.org/2000/svg">
<path d="M23.1875 3.5H18.375V2.625C18.375 1.17523 17.1998 0 15.75 0H12.25C10.8002 0 9.625 1.17523 9.625 2.625V3.5H4.8125C3.6044 3.5 2.625 4.4794 2.625 5.6875V7.4375C2.625 7.92077 3.01673 8.3125 3.5 8.3125H24.5C24.9833 8.3125 25.375 7.92077 25.375 7.4375V5.6875C25.375 4.4794 24.3956 3.5 23.1875 3.5ZM11.375 2.625C11.375 2.14266 11.7677 1.75 12.25 1.75H15.75C16.2323 1.75 16.625 2.14266 16.625 2.625V3.5H11.375V2.625Z" fill="#9346F4"/>
<path d="M4.28563 10.0625C4.1295 10.0625 4.00509 10.193 4.01252 10.349L4.7344 25.4997C4.80112 26.9019 5.95284 28 7.35612 28H20.6441C22.0474 28 23.1991 26.9019 23.2658 25.4997L23.9877 10.349C23.9951 10.193 23.8707 10.0625 23.7146 10.0625H4.28563ZM17.5001 12.25C17.5001 11.7666 17.8917 11.375 18.3751 11.375C18.8585 11.375 19.2501 11.7666 19.2501 12.25V23.625C19.2501 24.1084 18.8585 24.5 18.3751 24.5C17.8917 24.5 17.5001 24.1084 17.5001 23.625V12.25ZM13.1251 12.25C13.1251 11.7666 13.5167 11.375 14.0001 11.375C14.4835 11.375 14.8751 11.7666 14.8751 12.25V23.625C14.8751 24.1084 14.4835 24.5 14.0001 24.5C13.5167 24.5 13.1251 24.1084 13.1251 23.625V12.25ZM8.7501 12.25C8.7501 11.7666 9.14166 11.375 9.6251 11.375C10.1085 11.375 10.5001 11.7666 10.5001 12.25V23.625C10.5001 24.1084 10.1085 24.5 9.6251 24.5C9.14166 24.5 8.7501 24.1084 8.7501 23.625V12.25Z" fill="#9346F4"/>
</svg>
