<svg width="50" height="50" viewBox="0 0 50 50" fill="none" xmlns="http://www.w3.org/2000/svg">
<g clip-path="url(#clip0)">
<path d="M46.3543 34.4074H45.8332V31.2824C45.8332 28.4119 43.4959 26.0742 40.625 26.0742C37.7541 26.0742 35.4168 28.4119 35.4168 31.2824V34.4074H34.8957C32.8854 34.4074 31.25 36.0428 31.25 38.0535V45.3449C31.25 47.3556 32.8854 48.991 34.8957 48.991H46.3543C48.3646 48.991 50 47.3556 50 45.3449V38.0535C50 36.0428 48.3646 34.4074 46.3543 34.4074ZM38.5418 31.2824C38.5418 30.1346 39.4772 29.1992 40.625 29.1992C41.7728 29.1992 42.7082 30.1346 42.7082 31.2824V34.4074H38.5418V31.2824Z" fill="#B6EC5E"/>
<path d="M28.125 38.0535C28.125 35.2409 29.8481 32.8262 32.2918 31.8035V31.2824C32.2918 30.0159 32.5977 28.8284 33.1062 27.7512C31.5311 26.6949 29.6394 26.0742 27.6043 26.0742H9.89571C4.43955 26.0742 0 30.5138 0 35.9699V43.2617C0 44.1242 0.699997 44.8242 1.5625 44.8242H28.125V38.0535Z" fill="#9346F4"/>
<path d="M29.1668 11.491C29.1668 17.244 24.5029 21.9074 18.75 21.9074C12.997 21.9074 8.33319 17.244 8.33319 11.491C8.33319 5.73807 12.997 1.07422 18.75 1.07422C24.5029 1.07422 29.1668 5.73807 29.1668 11.491Z" fill="#9346F4"/>
</g>
<defs>
<clipPath id="clip0">
<rect width="50" height="50" fill="white"/>
</clipPath>
</defs>
</svg>
