<svg width="314" height="646" viewBox="0 0 314 646" fill="none" xmlns="http://www.w3.org/2000/svg">
<path d="M72.2502 288.048L39.5092 289.487L115.82 585.34L72.2502 288.048Z" fill="#9346F4"/>
<path d="M155.753 230.096H119.797L146.446 536.017L155.753 230.096Z" fill="#9346F4"/>
<path d="M194.669 200.401H181.218H165.143V229.927V493.124V533.733C158.46 567.32 135.617 595.07 105.076 608.521L33.5024 329.588L0 331.703L76.1419 616.474L83.9253 645.662L84.1791 645.577C84.6021 646 172.673 646 179.441 646H279.779H309.305V616.474V586.948V557.422V477.896V467.49V437.963V408.437V378.911V353.784V288.979V229.927V219.182V200.485H194.669V200.401ZM279.864 288.979V353.869V378.996V395.07V408.522V438.048V456.068V467.49V477.98V587.032V616.559H148.646C171.996 597.185 188.663 570.027 194.669 538.978V229.927H279.948V288.979H279.864Z" fill="#9346F4"/>
<path d="M107.529 252.769H78.0031L132.741 559.452L107.529 252.769Z" fill="#9346F4"/>
<path d="M247.951 141.751C284.157 135.875 308.744 101.761 302.868 65.5559C296.992 29.3504 262.878 4.76339 226.673 10.6393C190.467 16.5152 165.88 50.629 171.756 86.8346C177.632 123.04 211.746 147.627 247.951 141.751Z" fill="#9346F4"/>
</svg>
