<svg width="228" height="100" viewBox="0 0 228 100" fill="none" xmlns="http://www.w3.org/2000/svg">
<path d="M92.8009 83.707L81.635 86.0953L81.8207 76.4628C78.9033 71.8721 76.0389 67.2549 73.201 62.6642C69.9388 57.5958 67.3661 54.1196 65.43 52.2356C64.21 50.9353 62.7513 49.6351 61.0804 48.3348C59.9665 47.4592 58.4547 46.3712 56.5451 45.0709L56.3595 83.8928L46.2545 86.3606L46.1484 27.0797C48.2967 27.0797 50.2594 27.2654 51.9833 27.6635C53.7338 28.035 55.5373 28.8045 57.3938 29.919C59.6482 31.3254 62.2208 33.236 65.0587 35.5711C67.4457 37.5879 69.7797 39.6842 72.034 41.8601C73.8375 43.5053 75.6941 45.6547 77.6037 48.3083C79.1154 50.3781 80.5211 52.501 81.7942 54.6769V28.4065H92.96L92.8009 83.707Z" fill="white"/>
<path d="M151.998 56.5875C151.998 64.1502 149.585 70.6249 144.757 75.9851C139.93 81.3719 134.149 84.052 127.412 84.052H97.3359V28.8576H127.412C134.202 28.8576 140.01 31.5642 144.811 36.9775C149.611 42.3643 151.998 48.9186 151.998 56.5875ZM141.548 56.5875C141.548 51.9172 140.01 47.8837 136.933 44.5137C133.857 41.1436 130.17 39.4453 125.847 39.4453H107.971V73.4111H125.847C130.144 73.4111 133.83 71.7659 136.933 68.449C139.984 65.1585 141.548 61.2047 141.548 56.5875Z" fill="white"/>
<path d="M164.464 84.052L153.908 86.626L153.987 29.3087H164.464V84.052Z" fill="white"/>
<path d="M227.082 71.5006L215.651 84.052H189.315C183.215 84.052 177.99 81.2392 173.614 75.6401C169.264 70.0411 167.089 63.2479 167.089 55.2607C167.089 48.0429 169.264 41.8601 173.64 36.6591C177.99 31.4581 183.241 28.8576 189.341 28.8576H226.393L215.572 39.2861H191.675C188.015 39.2861 184.886 40.9579 182.313 44.3279C179.714 47.698 178.441 51.7314 178.441 56.5079C178.441 61.1516 179.714 65.132 182.287 68.449C184.833 71.7659 187.989 73.4377 191.702 73.4377H215.678C217.641 73.4377 220.134 73.1192 223.078 72.5089C224.059 72.3232 225.385 72.0047 227.082 71.5006ZM220.452 50.3516L208.756 62.3723L176.054 62.1069L175.629 50.3516H220.452Z" fill="white"/>
<path d="M82.3513 93.6314C82.3513 93.8172 82.4043 93.9764 82.5104 94.1091C82.6165 94.2417 82.7491 94.3744 82.9083 94.454C83.0674 94.5602 83.2531 94.6398 83.4652 94.6928C83.6774 94.7724 83.8896 94.8255 84.1018 94.9051C84.3405 94.9847 84.5792 95.0643 84.7913 95.1705C85.0035 95.2501 85.2157 95.3828 85.3748 95.5154C85.534 95.6481 85.6666 95.8073 85.7727 96.0196C85.8787 96.2054 85.9318 96.4442 85.9318 96.7361C85.9318 96.9749 85.8787 97.2137 85.7461 97.426C85.64 97.6383 85.4809 97.8241 85.2687 97.9833C85.0566 98.1425 84.8179 98.2486 84.5526 98.3282C84.2609 98.4079 83.9692 98.4344 83.6509 98.4344C83.4122 98.4344 83.2 98.4078 82.9878 98.3813C82.7757 98.3282 82.59 98.2752 82.4043 98.1956C82.2187 98.116 82.0596 98.0363 81.9269 97.9302C81.7943 97.8241 81.6617 97.7179 81.5556 97.6118C81.5291 97.5852 81.5291 97.5587 81.5026 97.5322C81.5026 97.5056 81.4761 97.4791 81.4761 97.426C81.4761 97.373 81.4761 97.3464 81.5026 97.2933C81.5291 97.2403 81.5291 97.2137 81.5556 97.1872C81.5822 97.1607 81.6087 97.1341 81.6352 97.1076C81.6617 97.0811 81.6883 97.0811 81.7413 97.0811C81.7943 97.0811 81.8474 97.1076 81.9004 97.1341C81.9535 97.1607 82.0065 97.2137 82.0596 97.2403C82.1391 97.3199 82.2452 97.373 82.3513 97.426C82.4574 97.4791 82.59 97.5587 82.7226 97.6118C82.8552 97.6648 82.9878 97.6914 83.147 97.7445C83.3061 97.771 83.4918 97.7975 83.6774 97.7975C83.8896 97.7975 84.0752 97.771 84.2609 97.7445C84.4466 97.6914 84.6057 97.6383 84.7383 97.5587C84.8709 97.4791 84.977 97.373 85.0566 97.2403C85.1361 97.1076 85.1627 96.9749 85.1627 96.8157C85.1627 96.6034 85.1096 96.4442 85.0035 96.285C84.8974 96.1523 84.7648 96.0196 84.6057 95.94C84.4466 95.8339 84.2609 95.7543 84.0487 95.7012C83.8365 95.6216 83.6244 95.5685 83.4122 95.4889C83.1735 95.4093 82.9348 95.3297 82.7226 95.2236C82.5104 95.1174 82.2983 95.0113 82.1391 94.8786C81.98 94.7459 81.8474 94.5867 81.7413 94.4009C81.6352 94.2152 81.5822 94.0029 81.5822 93.7375C81.5822 93.4987 81.6352 93.2599 81.7678 93.0741C81.8739 92.8619 82.033 92.7026 82.2452 92.5434C82.4309 92.4108 82.6696 92.3046 82.9083 92.225C83.1735 92.1454 83.4387 92.1189 83.7039 92.1189C84.1283 92.1189 84.4996 92.1985 84.8444 92.3311C85.1892 92.4638 85.4809 92.6761 85.7461 92.968C85.7727 92.9945 85.7727 93.0211 85.7992 93.0476C85.7992 93.0742 85.7992 93.1272 85.7992 93.1538C85.7992 93.1803 85.7992 93.2334 85.7727 93.2599C85.7727 93.2864 85.7461 93.3395 85.7196 93.366C85.6931 93.3926 85.6666 93.4191 85.64 93.4457C85.6135 93.4722 85.5605 93.4722 85.5074 93.4722C85.4279 93.4722 85.3218 93.4191 85.2422 93.313C85.1626 93.2334 85.0566 93.1803 84.9505 93.1007C84.8444 93.0476 84.7383 92.968 84.6322 92.9415C84.4996 92.8884 84.3935 92.8619 84.2609 92.8353C84.1283 92.8088 83.9692 92.7823 83.81 92.7823C83.6509 92.7823 83.4918 92.8088 83.3326 92.8353C83.1735 92.8619 83.0144 92.9415 82.8817 93.0211C82.7491 93.1007 82.643 93.2068 82.5635 93.3395C82.3778 93.366 82.3513 93.4987 82.3513 93.6314Z" fill="white"/>
<path d="M88.4778 98.3282C88.4247 98.3282 88.3717 98.3282 88.3451 98.3017C88.2921 98.2752 88.2656 98.2486 88.2125 98.2221C88.1595 98.1956 88.1595 98.1425 88.133 98.0894C88.1064 98.0363 88.1064 98.0098 88.1064 97.9567V92.4904C88.1064 92.4373 88.1064 92.4108 88.133 92.3577C88.1595 92.3046 88.186 92.2781 88.2125 92.225C88.2391 92.1985 88.2921 92.1719 88.3186 92.1454C88.3717 92.1189 88.3982 92.1189 88.4512 92.1189H91.6339C91.74 92.1189 91.8195 92.1454 91.8726 92.225C91.9256 92.3046 91.9522 92.3577 91.9522 92.4373C91.9522 92.5169 91.9256 92.5965 91.8726 92.6496C91.8195 92.7027 91.74 92.7557 91.6339 92.7557H88.8491V94.8255H91.5013C91.6074 94.8255 91.6869 94.852 91.74 94.9317C91.793 94.9847 91.8195 95.0643 91.8195 95.1439C91.8195 95.2236 91.793 95.3032 91.74 95.3562C91.6869 95.4093 91.6074 95.4624 91.5013 95.4624H88.8491V97.7179H91.7665C91.8726 97.7179 91.9521 97.7445 92.0052 97.8241C92.0582 97.8771 92.0848 97.9567 92.0848 98.0363C92.0848 98.1159 92.0582 98.1956 92.0052 98.2486C91.9521 98.3017 91.8726 98.3548 91.7665 98.3548H88.4778V98.3282Z" fill="white"/>
<path d="M94.3394 92.4638C94.3394 92.4108 94.3393 92.3577 94.3659 92.3046C94.3924 92.2516 94.4189 92.225 94.4454 92.1985C94.472 92.172 94.525 92.1454 94.5781 92.1189C94.6311 92.0923 94.6841 92.0923 94.7372 92.0923H96.5672C96.8324 92.0923 97.0977 92.1189 97.3364 92.172C97.6016 92.225 97.8138 92.3046 98.0259 92.4108C98.2381 92.5169 98.3972 92.7027 98.5298 92.915C98.6625 93.1272 98.7155 93.3926 98.7155 93.711C98.7155 94.056 98.6094 94.3479 98.3972 94.5867C98.1851 94.8255 97.8668 94.9847 97.469 95.0643V95.0909C97.6811 95.1174 97.8403 95.1705 97.9729 95.2501C98.1055 95.3297 98.2116 95.4359 98.2912 95.542C98.3707 95.6481 98.4238 95.7808 98.4768 95.94C98.5033 96.0992 98.5564 96.2585 98.5564 96.4442C98.5829 96.683 98.6094 96.8688 98.6094 97.0545C98.6359 97.2403 98.6359 97.3995 98.6625 97.5322C98.6625 97.6914 98.689 97.8241 98.689 97.9302C98.689 98.0629 98.6625 98.1425 98.5829 98.2221C98.5033 98.2752 98.4238 98.3283 98.3177 98.3283C98.2381 98.3283 98.132 98.3017 98.0525 98.2486C97.9729 98.1956 97.9198 98.0894 97.9198 97.9833C97.8933 97.6383 97.8668 97.3199 97.8403 97.0545C97.8137 96.7892 97.7872 96.5504 97.7607 96.3646C97.7342 96.1789 97.6811 96.0196 97.6281 95.9135C97.5751 95.8074 97.4955 95.7012 97.4159 95.6216C97.3363 95.542 97.2037 95.5155 97.0711 95.4889C96.9385 95.4624 96.7529 95.4624 96.5407 95.4624H95.1085V97.9833C95.1085 98.0364 95.1085 98.0894 95.082 98.1425C95.0554 98.1956 95.0289 98.2221 95.0024 98.2486C94.9759 98.2752 94.9228 98.3017 94.8698 98.3283C94.8168 98.3548 94.7902 98.3548 94.7372 98.3548C94.6311 98.3548 94.5515 98.3283 94.472 98.2752C94.3924 98.2221 94.3659 98.116 94.3659 98.0098V92.4638H94.3394ZM96.2224 94.8255C96.355 94.8255 96.4876 94.8255 96.6203 94.8255C96.7529 94.8255 96.8855 94.799 97.0181 94.7725C97.1507 94.7459 97.2568 94.7194 97.3629 94.6663C97.469 94.6132 97.5751 94.5602 97.6546 94.4806C97.7342 94.401 97.8137 94.2948 97.8403 94.1887C97.8933 94.0825 97.9198 93.9233 97.9198 93.7641C97.9198 93.6049 97.8933 93.4722 97.8668 93.3395C97.8138 93.2334 97.7607 93.1272 97.7077 93.0476C97.6281 92.968 97.5485 92.915 97.469 92.8619C97.3629 92.8088 97.2833 92.7823 97.1772 92.7557C97.0711 92.7292 96.965 92.7292 96.859 92.7027C96.7529 92.7027 96.6468 92.7027 96.5407 92.7027H95.1615V94.8255H96.2224Z" fill="white"/>
<path d="M102.88 97.6383L104.71 92.3577C104.736 92.2781 104.789 92.1985 104.842 92.172C104.895 92.1189 104.975 92.0923 105.054 92.0923C105.107 92.0923 105.134 92.0923 105.187 92.1189C105.24 92.1454 105.267 92.1454 105.293 92.1985C105.32 92.2516 105.346 92.2516 105.373 92.3046C105.399 92.3577 105.399 92.3842 105.399 92.4373C105.399 92.4638 105.399 92.4638 105.399 92.4904C105.399 92.5169 105.399 92.5169 105.373 92.5434L103.463 97.8506C103.41 98.0364 103.33 98.1425 103.224 98.2221C103.118 98.3017 102.986 98.3283 102.853 98.3283C102.72 98.3283 102.588 98.3017 102.482 98.2221C102.376 98.169 102.296 98.0364 102.217 97.8506L100.28 92.57C100.28 92.5435 100.254 92.5435 100.254 92.5169C100.254 92.4904 100.254 92.4904 100.254 92.4638C100.254 92.4108 100.254 92.3577 100.28 92.3312C100.307 92.2781 100.333 92.2516 100.36 92.225C100.387 92.1985 100.44 92.1719 100.493 92.1454C100.546 92.1189 100.599 92.1189 100.625 92.1189C100.705 92.1189 100.758 92.1454 100.837 92.172C100.89 92.225 100.943 92.2781 100.97 92.3577L102.88 97.6383Z" fill="white"/>
<path d="M107.388 92.4638C107.388 92.4108 107.388 92.3577 107.415 92.3046C107.441 92.2516 107.468 92.225 107.494 92.1985C107.521 92.172 107.574 92.1454 107.627 92.1189C107.68 92.0923 107.706 92.0923 107.759 92.0923C107.866 92.0923 107.945 92.1189 108.025 92.172C108.104 92.225 108.131 92.3312 108.131 92.4638V97.9568C108.131 98.0098 108.131 98.0629 108.104 98.116C108.078 98.169 108.051 98.1956 108.025 98.2221C107.998 98.2486 107.945 98.2752 107.892 98.3017C107.839 98.3283 107.813 98.3283 107.759 98.3283C107.653 98.3283 107.574 98.3017 107.494 98.2486C107.415 98.1956 107.388 98.0894 107.388 97.9833V92.4638Z" fill="white"/>
<path d="M110.412 95.2501C110.412 94.8255 110.465 94.4275 110.571 94.0294C110.677 93.6314 110.862 93.2864 111.075 92.9945C111.313 92.7026 111.605 92.4638 111.95 92.3046C112.295 92.1454 112.719 92.0392 113.17 92.0392C113.462 92.0392 113.727 92.0658 113.992 92.1454C114.257 92.1985 114.496 92.3046 114.708 92.3842C114.761 92.4108 114.814 92.4638 114.841 92.5169C114.867 92.57 114.894 92.623 114.894 92.7026C114.894 92.7822 114.867 92.8619 114.814 92.9149C114.761 92.968 114.708 93.0211 114.629 93.0211C114.602 93.0211 114.549 93.0211 114.523 92.9945C114.31 92.9149 114.072 92.8353 113.833 92.7823C113.594 92.7292 113.409 92.7026 113.223 92.7026C112.958 92.7026 112.746 92.7292 112.533 92.8088C112.348 92.8884 112.162 92.968 112.003 93.1007C111.844 93.2334 111.738 93.366 111.632 93.5253C111.526 93.6845 111.446 93.8702 111.366 94.056C111.313 94.2417 111.26 94.454 111.234 94.6398C111.207 94.852 111.181 95.0378 111.181 95.2235C111.181 95.4093 111.207 95.595 111.234 95.7808C111.26 95.9931 111.313 96.1788 111.366 96.3646C111.419 96.5503 111.526 96.7361 111.632 96.8953C111.738 97.0545 111.87 97.2137 112.003 97.3199C112.162 97.4525 112.321 97.5322 112.533 97.6118C112.719 97.6914 112.958 97.7179 113.223 97.7179C113.329 97.7179 113.435 97.7179 113.541 97.6914C113.647 97.6648 113.78 97.6383 113.886 97.6118C114.019 97.5852 114.125 97.5322 114.257 97.4791C114.39 97.426 114.496 97.3729 114.629 97.2933C114.655 97.2668 114.682 97.2668 114.708 97.2668C114.735 97.2668 114.761 97.2668 114.788 97.2668C114.867 97.2668 114.92 97.2933 114.973 97.3464C115.026 97.3995 115.053 97.4791 115.053 97.5322C115.053 97.6118 115.026 97.6914 114.973 97.771C114.92 97.8506 114.841 97.9037 114.735 97.9833C114.629 98.0363 114.523 98.0894 114.39 98.1425C114.257 98.1955 114.125 98.2221 113.992 98.2752C113.859 98.3017 113.727 98.3282 113.568 98.3548C113.435 98.3813 113.303 98.3813 113.196 98.3813C112.719 98.3813 112.321 98.3017 111.95 98.1159C111.605 97.9567 111.313 97.7179 111.075 97.426C110.836 97.1341 110.677 96.7892 110.571 96.3911C110.465 96.0461 110.412 95.6481 110.412 95.2501ZM112.772 98.2752H113.037L112.905 98.7528C113.011 98.7528 113.117 98.7528 113.223 98.7528C113.329 98.7528 113.435 98.8059 113.515 98.8324C113.594 98.8855 113.674 98.9386 113.727 99.0182C113.78 99.0978 113.806 99.2039 113.806 99.3366C113.806 99.4427 113.78 99.5489 113.727 99.6285C113.674 99.7081 113.621 99.7877 113.541 99.8408C113.462 99.8938 113.382 99.9469 113.276 99.9734C113.17 100 113.09 100 112.984 100C112.852 100 112.746 100 112.639 99.9734C112.533 99.9469 112.427 99.9469 112.321 99.8938C112.215 99.8673 112.162 99.8408 112.083 99.7877C112.029 99.7612 112.003 99.7081 112.003 99.655C112.003 99.6285 112.003 99.5754 112.029 99.5489C112.056 99.5223 112.083 99.4958 112.109 99.4958C112.136 99.4958 112.136 99.4958 112.162 99.4958C112.268 99.5489 112.374 99.5754 112.48 99.6019C112.586 99.6285 112.719 99.655 112.852 99.655C113.011 99.655 113.117 99.6285 113.17 99.5489C113.223 99.4958 113.249 99.3897 113.249 99.2835C113.249 99.2304 113.223 99.1774 113.196 99.1243C113.17 99.0712 113.143 99.0447 113.09 99.0182C113.037 98.9916 112.984 98.9651 112.931 98.9651C112.878 98.9651 112.825 98.9386 112.746 98.9386H112.719H112.693C112.639 98.9386 112.613 98.9385 112.586 98.912C112.56 98.8855 112.56 98.8589 112.56 98.8059C112.56 98.7793 112.56 98.7528 112.56 98.7263L112.772 98.2752Z" fill="white"/>
<path d="M117.228 95.2236C117.228 94.7725 117.281 94.3479 117.414 93.9498C117.546 93.5518 117.732 93.2068 117.971 92.9149C118.209 92.6231 118.501 92.4108 118.872 92.2516C119.217 92.0923 119.642 92.0127 120.092 92.0127C120.543 92.0127 120.968 92.0923 121.312 92.2516C121.657 92.4108 121.975 92.6231 122.214 92.9149C122.453 93.2068 122.639 93.5518 122.771 93.9498C122.904 94.3479 122.957 94.7725 122.957 95.2236C122.957 95.6747 122.904 96.0992 122.771 96.4973C122.639 96.8953 122.453 97.2403 122.214 97.5322C121.975 97.8241 121.684 98.0364 121.312 98.1956C120.968 98.3548 120.543 98.4344 120.092 98.4344C119.642 98.4344 119.217 98.3548 118.872 98.1956C118.528 98.0364 118.209 97.8241 117.971 97.5322C117.732 97.2403 117.546 96.8953 117.414 96.4973C117.308 96.0992 117.228 95.6747 117.228 95.2236ZM118.05 95.2236C118.05 95.5155 118.077 95.8339 118.156 96.1523C118.236 96.4707 118.342 96.7361 118.528 96.9749C118.713 97.2137 118.899 97.3995 119.164 97.5587C119.429 97.6914 119.748 97.771 120.092 97.771C120.464 97.771 120.755 97.6914 121.021 97.5587C121.286 97.426 121.498 97.2137 121.657 96.9749C121.816 96.7361 121.949 96.4707 122.029 96.1523C122.108 95.8339 122.135 95.5155 122.135 95.2236C122.135 94.9317 122.108 94.6132 122.029 94.2948C121.949 93.9764 121.843 93.711 121.657 93.4722C121.498 93.2334 121.286 93.0476 121.021 92.8884C120.755 92.7557 120.464 92.6761 120.092 92.6761C119.721 92.6761 119.429 92.7557 119.164 92.8884C118.899 93.0211 118.687 93.2334 118.528 93.4722C118.368 93.711 118.236 94.0029 118.156 94.2948C118.077 94.6132 118.05 94.9317 118.05 95.2236Z" fill="white"/>
<path d="M125.795 93.6314C125.795 93.8172 125.848 93.9764 125.954 94.1091C126.06 94.2417 126.192 94.3744 126.352 94.454C126.511 94.5602 126.696 94.6398 126.909 94.6928C127.121 94.7724 127.333 94.8255 127.545 94.9051C127.784 94.9847 128.023 95.0643 128.235 95.1705C128.447 95.2501 128.659 95.3828 128.818 95.5154C128.977 95.6481 129.11 95.8073 129.216 96.0196C129.322 96.2054 129.375 96.4442 129.375 96.7361C129.375 96.9749 129.322 97.2137 129.19 97.426C129.083 97.6383 128.924 97.8241 128.712 97.9833C128.5 98.1425 128.261 98.2486 127.996 98.3282C127.704 98.4079 127.413 98.4344 127.094 98.4344C126.856 98.4344 126.643 98.4078 126.431 98.3813C126.219 98.3282 126.033 98.2752 125.848 98.1956C125.662 98.116 125.503 98.0363 125.37 97.9302C125.238 97.8241 125.105 97.7179 124.999 97.6118C124.972 97.5852 124.972 97.5587 124.946 97.5322C124.946 97.5056 124.919 97.4791 124.919 97.426C124.919 97.373 124.919 97.3464 124.946 97.2933C124.972 97.2403 124.972 97.2137 124.999 97.1872C125.026 97.1607 125.052 97.1341 125.079 97.1076C125.105 97.0811 125.132 97.0811 125.185 97.0811C125.238 97.0811 125.291 97.1076 125.344 97.1341C125.397 97.1607 125.45 97.2137 125.503 97.2403C125.582 97.3199 125.689 97.373 125.795 97.426C125.901 97.4791 126.033 97.5587 126.166 97.6118C126.299 97.6648 126.431 97.6914 126.59 97.7445C126.749 97.771 126.935 97.7975 127.121 97.7975C127.333 97.7975 127.519 97.771 127.704 97.7445C127.89 97.6914 128.049 97.6383 128.182 97.5587C128.314 97.4791 128.42 97.373 128.5 97.2403C128.579 97.1076 128.606 96.9749 128.606 96.8157C128.606 96.6034 128.553 96.4442 128.447 96.285C128.341 96.1523 128.208 96.0196 128.049 95.94C127.89 95.8339 127.704 95.7543 127.492 95.7012C127.28 95.6216 127.068 95.5685 126.856 95.4889C126.617 95.4093 126.378 95.3297 126.166 95.2236C125.954 95.1174 125.742 95.0113 125.582 94.8786C125.423 94.7459 125.291 94.5867 125.185 94.4009C125.079 94.2152 125.026 94.0029 125.026 93.7375C125.026 93.4987 125.079 93.2599 125.211 93.0741C125.317 92.8619 125.476 92.7026 125.689 92.5434C125.874 92.4108 126.113 92.3046 126.352 92.225C126.617 92.1454 126.882 92.1189 127.147 92.1189C127.572 92.1189 127.943 92.1985 128.288 92.3311C128.633 92.4638 128.924 92.6761 129.19 92.968C129.216 92.9945 129.216 93.0211 129.243 93.0476C129.243 93.0742 129.243 93.1272 129.243 93.1538C129.243 93.1803 129.243 93.2334 129.216 93.2599C129.216 93.2864 129.19 93.3395 129.163 93.366C129.136 93.3926 129.11 93.4191 129.083 93.4457C129.057 93.4722 129.004 93.4722 128.951 93.4722C128.871 93.4722 128.765 93.4191 128.686 93.313C128.606 93.2334 128.5 93.1803 128.394 93.1007C128.288 93.0476 128.182 92.968 128.076 92.9415C127.943 92.8884 127.837 92.8619 127.704 92.8353C127.572 92.8088 127.413 92.7823 127.253 92.7823C127.094 92.7823 126.935 92.8088 126.776 92.8353C126.617 92.8619 126.458 92.9415 126.325 93.0211C126.192 93.1007 126.086 93.2068 126.007 93.3395C125.821 93.366 125.795 93.4987 125.795 93.6314Z" fill="white"/>
<path d="M134.945 92.4638C134.945 92.4108 134.945 92.3577 134.971 92.3046C134.998 92.2516 135.024 92.225 135.051 92.1985C135.077 92.172 135.13 92.1454 135.184 92.1189C135.237 92.0923 135.263 92.0923 135.316 92.0923C135.422 92.0923 135.502 92.1189 135.581 92.172C135.661 92.225 135.687 92.3312 135.687 92.4638V97.9568C135.687 98.0098 135.687 98.0629 135.661 98.116C135.634 98.169 135.608 98.1956 135.581 98.2221C135.555 98.2486 135.502 98.2752 135.449 98.3017C135.396 98.3283 135.369 98.3283 135.316 98.3283C135.21 98.3283 135.13 98.3017 135.051 98.2486C134.971 98.1956 134.945 98.0894 134.945 97.9833V92.4638Z" fill="white"/>
<path d="M138.233 92.623C138.233 92.5434 138.26 92.4638 138.286 92.4108C138.313 92.3577 138.339 92.3046 138.393 92.2515C138.446 92.1985 138.499 92.1719 138.552 92.1454C138.605 92.1189 138.658 92.1189 138.737 92.1189C138.817 92.1189 138.896 92.1454 138.976 92.1719C139.056 92.225 139.135 92.2781 139.188 92.3577L142.424 97.3464V92.4638C142.424 92.4108 142.424 92.3577 142.45 92.3046C142.477 92.2515 142.503 92.225 142.53 92.1985C142.557 92.1719 142.61 92.1454 142.636 92.1454C142.689 92.1189 142.716 92.1189 142.769 92.1189C142.822 92.1189 142.848 92.1189 142.901 92.1454C142.954 92.1719 142.981 92.1719 143.007 92.1985C143.034 92.225 143.06 92.2515 143.087 92.3046C143.113 92.3577 143.113 92.4108 143.113 92.4638V97.8241C143.113 97.9037 143.087 97.9833 143.06 98.0363C143.034 98.0894 142.981 98.1425 142.954 98.1956C142.901 98.2486 142.848 98.2752 142.795 98.3017C142.742 98.3282 142.663 98.3282 142.61 98.3282C142.53 98.3282 142.45 98.3017 142.371 98.2752C142.291 98.2221 142.212 98.169 142.159 98.0894L138.976 93.1803V97.9833C138.976 98.0363 138.976 98.0894 138.949 98.1425C138.923 98.1956 138.896 98.2221 138.87 98.2486C138.843 98.2752 138.79 98.3017 138.764 98.3017C138.711 98.3282 138.684 98.3282 138.631 98.3282C138.552 98.3282 138.446 98.3017 138.393 98.2486C138.313 98.1956 138.286 98.1159 138.286 97.9833V92.623H138.233Z" fill="white"/>
<path d="M145.898 98.3282C145.845 98.3282 145.792 98.3282 145.739 98.3017C145.686 98.2752 145.66 98.2486 145.607 98.2221C145.554 98.1956 145.554 98.1425 145.527 98.1159C145.5 98.0629 145.5 98.0098 145.5 97.9567V92.4904C145.5 92.4373 145.5 92.3842 145.527 92.3311C145.554 92.2781 145.58 92.2515 145.607 92.225C145.633 92.1985 145.686 92.1719 145.739 92.1454C145.792 92.1189 145.845 92.1189 145.898 92.1189H147.357C147.887 92.1189 148.365 92.1985 148.763 92.3311C149.161 92.4638 149.505 92.6761 149.797 92.9149C150.062 93.1803 150.274 93.4987 150.434 93.8968C150.566 94.2948 150.646 94.7459 150.646 95.2501C150.646 95.7543 150.566 96.2054 150.434 96.6034C150.301 97.0014 150.089 97.3199 149.797 97.5587C149.532 97.8241 149.187 98.0098 148.789 98.1425C148.391 98.2752 147.941 98.3282 147.41 98.3282H145.898ZM146.27 97.7179H147.437C147.861 97.7179 148.206 97.6648 148.524 97.5322C148.816 97.426 149.054 97.2403 149.267 97.028C149.452 96.8157 149.585 96.5503 149.691 96.2319C149.771 95.9135 149.824 95.5685 149.824 95.197C149.824 94.7724 149.771 94.4009 149.638 94.0825C149.532 93.7641 149.346 93.4987 149.134 93.313C148.922 93.1272 148.657 92.968 148.338 92.8619C148.02 92.7557 147.649 92.7026 147.251 92.7026H146.27V97.7179Z" fill="white"/>
<path d="M153.245 98.3282C153.192 98.3282 153.139 98.3282 153.112 98.3017C153.059 98.2752 153.033 98.2486 152.98 98.2221C152.927 98.1956 152.927 98.1425 152.9 98.0894C152.874 98.0363 152.874 98.0098 152.874 97.9567V92.4904C152.874 92.4373 152.874 92.4108 152.9 92.3577C152.927 92.3046 152.953 92.2781 152.98 92.225C153.006 92.1719 153.059 92.1719 153.086 92.1454C153.139 92.1189 153.165 92.1189 153.218 92.1189H156.401C156.507 92.1189 156.587 92.1454 156.64 92.225C156.693 92.2781 156.719 92.3577 156.719 92.4373C156.719 92.5169 156.693 92.5965 156.64 92.6496C156.587 92.7027 156.507 92.7557 156.401 92.7557H153.616V94.8255H156.268C156.374 94.8255 156.454 94.852 156.507 94.9317C156.56 94.9847 156.587 95.0643 156.587 95.1439C156.587 95.2236 156.56 95.3032 156.507 95.3562C156.454 95.4093 156.374 95.4624 156.268 95.4624H153.616V97.7179H156.534C156.64 97.7179 156.719 97.7445 156.772 97.8241C156.825 97.8771 156.852 97.9567 156.852 98.0363C156.852 98.1159 156.825 98.1956 156.772 98.2486C156.719 98.3017 156.64 98.3548 156.534 98.3548H153.245V98.3282Z" fill="white"/>
<path d="M159.849 95.595V97.9567C159.849 98.0098 159.849 98.0629 159.823 98.1159C159.796 98.169 159.769 98.1956 159.743 98.2221C159.716 98.2486 159.663 98.2752 159.61 98.3017C159.557 98.3282 159.531 98.3282 159.478 98.3282C159.372 98.3282 159.292 98.3017 159.213 98.2486C159.133 98.1956 159.106 98.0894 159.106 97.9833V92.5169C159.106 92.4638 159.106 92.4108 159.133 92.3577C159.159 92.3046 159.186 92.2781 159.213 92.225C159.239 92.1985 159.292 92.1719 159.345 92.1454C159.398 92.1189 159.451 92.1189 159.504 92.1189H161.043C161.255 92.1189 161.44 92.1189 161.653 92.1454C161.838 92.1719 162.05 92.1985 162.21 92.2515C162.395 92.3046 162.554 92.3842 162.713 92.4638C162.873 92.5434 163.005 92.6761 163.111 92.8088C163.217 92.9415 163.323 93.1007 163.377 93.2864C163.43 93.4722 163.483 93.6579 163.483 93.8702C163.483 94.0825 163.456 94.2683 163.377 94.454C163.323 94.6398 163.217 94.799 163.111 94.9317C163.005 95.0643 162.873 95.1705 162.713 95.2766C162.554 95.3562 162.395 95.4358 162.21 95.4889C162.024 95.542 161.838 95.595 161.626 95.595C161.414 95.6216 161.228 95.6216 161.016 95.6216H159.849V95.595ZM161.096 94.9847C161.308 94.9847 161.493 94.9582 161.679 94.9317C161.865 94.9051 162.024 94.8255 162.156 94.7459C162.289 94.6663 162.395 94.5336 162.475 94.3744C162.554 94.2152 162.607 94.056 162.607 93.8437C162.607 93.6314 162.554 93.4722 162.475 93.313C162.395 93.1538 162.289 93.0476 162.156 92.9415C162.024 92.8619 161.865 92.7823 161.679 92.7557C161.493 92.7292 161.308 92.7026 161.096 92.7026H159.823V94.9847H161.096Z" fill="white"/>
<path d="M165.817 98.3282C165.764 98.3282 165.711 98.3282 165.684 98.3017C165.631 98.2752 165.604 98.2486 165.551 98.2221C165.498 98.1956 165.498 98.1425 165.472 98.0894C165.445 98.0363 165.445 98.0098 165.445 97.9567V92.4904C165.445 92.4373 165.445 92.4108 165.472 92.3577C165.498 92.3046 165.525 92.2781 165.551 92.225C165.578 92.1719 165.631 92.1719 165.657 92.1454C165.711 92.1189 165.737 92.1189 165.79 92.1189H168.973C169.079 92.1189 169.158 92.1454 169.211 92.225C169.264 92.2781 169.291 92.3577 169.291 92.4373C169.291 92.5169 169.264 92.5965 169.211 92.6496C169.158 92.7027 169.079 92.7557 168.973 92.7557H166.188V94.8255H168.84C168.946 94.8255 169.026 94.852 169.079 94.9317C169.132 94.9847 169.158 95.0643 169.158 95.1439C169.158 95.2236 169.132 95.3032 169.079 95.3562C169.026 95.4093 168.946 95.4624 168.84 95.4624H166.188V97.7179H169.105C169.211 97.7179 169.291 97.7445 169.344 97.8241C169.397 97.8771 169.424 97.9567 169.424 98.0363C169.424 98.1159 169.397 98.1956 169.344 98.2486C169.291 98.3017 169.211 98.3548 169.105 98.3548H165.817V98.3282Z" fill="white"/>
<path d="M171.572 92.623C171.572 92.5434 171.598 92.4638 171.625 92.4108C171.651 92.3577 171.678 92.3046 171.731 92.2515C171.784 92.1985 171.837 92.1719 171.89 92.1454C171.943 92.1189 171.996 92.1189 172.076 92.1189C172.155 92.1189 172.235 92.1454 172.314 92.1719C172.394 92.225 172.474 92.2781 172.527 92.3577L175.762 97.3464V92.4638C175.762 92.4108 175.762 92.3577 175.789 92.3046C175.815 92.2515 175.842 92.225 175.868 92.1985C175.895 92.1719 175.948 92.1454 175.974 92.1454C176.027 92.1189 176.054 92.1189 176.107 92.1189C176.16 92.1189 176.187 92.1189 176.24 92.1454C176.293 92.1719 176.319 92.1719 176.346 92.1985C176.372 92.225 176.399 92.2515 176.425 92.3046C176.452 92.3577 176.452 92.4108 176.452 92.4638V97.8241C176.452 97.9037 176.425 97.9833 176.399 98.0363C176.372 98.0894 176.319 98.1425 176.293 98.1956C176.24 98.2486 176.187 98.2752 176.134 98.3017C176.081 98.3282 176.001 98.3282 175.948 98.3282C175.868 98.3282 175.789 98.3017 175.709 98.2752C175.63 98.2221 175.55 98.169 175.497 98.0894L172.314 93.1803V97.9833C172.314 98.0363 172.314 98.0894 172.288 98.1425C172.261 98.1956 172.235 98.2221 172.208 98.2486C172.182 98.2752 172.129 98.3017 172.102 98.3017C172.049 98.3282 172.023 98.3282 171.97 98.3282C171.89 98.3282 171.784 98.3017 171.731 98.2486C171.651 98.1956 171.625 98.1159 171.625 97.9833V92.623H171.572Z" fill="white"/>
<path d="M179.237 98.3282C179.184 98.3282 179.131 98.3282 179.078 98.3017C179.025 98.2752 178.998 98.2486 178.945 98.2221C178.892 98.1956 178.892 98.1425 178.865 98.1159C178.839 98.0629 178.839 98.0098 178.839 97.9567V92.4904C178.839 92.4373 178.839 92.3842 178.865 92.3311C178.892 92.2781 178.918 92.2515 178.945 92.225C178.971 92.1985 179.025 92.1719 179.078 92.1454C179.131 92.1189 179.184 92.1189 179.237 92.1189H180.695C181.226 92.1189 181.703 92.1985 182.101 92.3311C182.499 92.4638 182.844 92.6761 183.135 92.9149C183.401 93.1803 183.613 93.4987 183.772 93.8968C183.905 94.2948 183.984 94.7459 183.984 95.2501C183.984 95.7543 183.905 96.2054 183.772 96.6034C183.639 97.0014 183.427 97.3199 183.135 97.5587C182.87 97.8241 182.525 98.0098 182.128 98.1425C181.73 98.2752 181.279 98.3282 180.748 98.3282H179.237ZM179.635 97.7179H180.802C181.226 97.7179 181.571 97.6648 181.889 97.5322C182.181 97.426 182.419 97.2403 182.632 97.028C182.817 96.8157 182.95 96.5503 183.056 96.2319C183.135 95.9135 183.189 95.5685 183.189 95.197C183.189 94.7724 183.135 94.4009 183.003 94.0825C182.897 93.7641 182.711 93.4987 182.499 93.313C182.287 93.1272 182.022 92.968 181.703 92.8619C181.385 92.7557 181.014 92.7026 180.616 92.7026H179.635V97.7179Z" fill="white"/>
<path d="M186.583 98.3282C186.53 98.3282 186.477 98.3282 186.451 98.3017C186.398 98.2752 186.371 98.2486 186.318 98.2221C186.265 98.1956 186.265 98.1425 186.238 98.0894C186.212 98.0363 186.212 98.0098 186.212 97.9567V92.4904C186.212 92.4373 186.212 92.4108 186.238 92.3577C186.265 92.3046 186.291 92.2781 186.318 92.225C186.345 92.1985 186.398 92.1719 186.424 92.1454C186.477 92.1189 186.504 92.1189 186.557 92.1189H189.739C189.845 92.1189 189.925 92.1454 189.978 92.225C190.031 92.2781 190.058 92.3577 190.058 92.4373C190.058 92.5169 190.031 92.5965 189.978 92.6496C189.925 92.7027 189.845 92.7557 189.739 92.7557H186.955V94.8255H189.607C189.713 94.8255 189.792 94.852 189.845 94.9317C189.898 94.9847 189.925 95.0643 189.925 95.1439C189.925 95.2236 189.898 95.3032 189.845 95.3562C189.792 95.4093 189.713 95.4624 189.607 95.4624H186.955V97.7179H189.872C189.978 97.7179 190.058 97.7445 190.111 97.8241C190.164 97.8771 190.19 97.9567 190.19 98.0363C190.19 98.1159 190.164 98.1956 190.111 98.2486C190.058 98.3017 189.978 98.3548 189.872 98.3548H186.583V98.3282Z" fill="white"/>
<path d="M192.365 92.623C192.365 92.5434 192.392 92.4638 192.418 92.4108C192.445 92.3577 192.471 92.3046 192.524 92.2515C192.577 92.1985 192.63 92.1719 192.684 92.1454C192.737 92.1189 192.79 92.1189 192.869 92.1189C192.949 92.1189 193.028 92.1454 193.108 92.1719C193.187 92.225 193.267 92.2781 193.32 92.3577L196.556 97.3464V92.4638C196.556 92.4108 196.556 92.3577 196.582 92.3046C196.609 92.2515 196.635 92.225 196.662 92.1985C196.688 92.1719 196.741 92.1454 196.768 92.1454C196.821 92.1189 196.847 92.1189 196.901 92.1189C196.954 92.1189 196.98 92.1189 197.033 92.1454C197.086 92.1719 197.113 92.1719 197.139 92.1985C197.166 92.225 197.192 92.2515 197.219 92.3046C197.245 92.3577 197.245 92.4108 197.245 92.4638V97.8241C197.245 97.9037 197.219 97.9833 197.192 98.0363C197.166 98.0894 197.113 98.1425 197.086 98.1956C197.033 98.2486 196.98 98.2752 196.927 98.3017C196.874 98.3282 196.794 98.3282 196.741 98.3282C196.662 98.3282 196.582 98.3017 196.503 98.2752C196.423 98.2221 196.344 98.169 196.291 98.0894L193.108 93.1803V97.9833C193.108 98.0363 193.108 98.0894 193.081 98.1425C193.055 98.1956 193.028 98.2221 193.002 98.2486C192.975 98.2752 192.922 98.3017 192.896 98.3017C192.843 98.3282 192.816 98.3282 192.763 98.3282C192.684 98.3282 192.577 98.3017 192.524 98.2486C192.445 98.1956 192.418 98.1159 192.418 97.9833V92.623H192.365Z" fill="white"/>
<path d="M199.314 92.7292C199.208 92.7292 199.128 92.7027 199.075 92.6231C199.022 92.5435 198.996 92.4904 198.996 92.4108C198.996 92.3312 199.022 92.2516 199.075 92.1985C199.128 92.1454 199.208 92.0923 199.314 92.0923H203.398C203.504 92.0923 203.584 92.1189 203.637 92.1985C203.69 92.2516 203.717 92.3312 203.717 92.4108C203.717 92.4904 203.69 92.57 203.637 92.6231C203.584 92.6761 203.504 92.7292 203.398 92.7292H201.754V97.9302C201.754 97.9833 201.754 98.0364 201.727 98.0894C201.701 98.1425 201.674 98.169 201.648 98.1956C201.621 98.2221 201.568 98.2487 201.515 98.2752C201.462 98.3017 201.436 98.3017 201.383 98.3017C201.277 98.3017 201.197 98.2752 201.117 98.1956C201.038 98.1425 201.011 98.0364 201.011 97.9302V92.7292H199.314Z" fill="white"/>
<path d="M205.918 98.3282C205.865 98.3282 205.812 98.3282 205.785 98.3017C205.732 98.2752 205.706 98.2486 205.652 98.2221C205.626 98.1956 205.599 98.1425 205.573 98.0894C205.546 98.0363 205.546 98.0098 205.546 97.9567V92.4904C205.546 92.4373 205.546 92.4108 205.573 92.3577C205.599 92.3046 205.626 92.2781 205.652 92.225C205.679 92.1719 205.732 92.1719 205.759 92.1454C205.812 92.1189 205.838 92.1189 205.891 92.1189H209.074C209.18 92.1189 209.259 92.1454 209.313 92.225C209.366 92.2781 209.392 92.3577 209.392 92.4373C209.392 92.5169 209.366 92.5965 209.313 92.6496C209.259 92.7027 209.18 92.7557 209.074 92.7557H206.289V94.8255H208.941C209.047 94.8255 209.127 94.852 209.18 94.9317C209.233 94.9847 209.259 95.0643 209.259 95.1439C209.259 95.2236 209.233 95.3032 209.18 95.3562C209.127 95.4093 209.047 95.4624 208.941 95.4624H206.289V97.7179H209.206C209.313 97.7179 209.392 97.7445 209.445 97.8241C209.498 97.8771 209.525 97.9567 209.525 98.0363C209.525 98.1159 209.498 98.1956 209.445 98.2486C209.392 98.3017 209.313 98.3548 209.206 98.3548H205.918V98.3282Z" fill="white"/>
<path d="M212.336 93.6314C212.336 93.8172 212.389 93.9764 212.495 94.1091C212.601 94.2417 212.734 94.3744 212.893 94.454C213.052 94.5336 213.238 94.6398 213.45 94.6928C213.662 94.7724 213.874 94.8255 214.087 94.9051C214.325 94.9847 214.564 95.0643 214.776 95.1705C214.988 95.2501 215.201 95.3828 215.36 95.5154C215.519 95.6481 215.651 95.8073 215.758 96.0196C215.864 96.2054 215.917 96.4442 215.917 96.7361C215.917 96.9749 215.864 97.2137 215.731 97.426C215.625 97.6383 215.466 97.8241 215.254 97.9833C215.041 98.1425 214.803 98.2486 214.538 98.3282C214.246 98.4079 213.954 98.4344 213.636 98.4344C213.397 98.4344 213.185 98.4078 212.973 98.3813C212.761 98.3282 212.575 98.2752 212.389 98.1956C212.204 98.116 212.044 98.0363 211.912 97.9302C211.779 97.8241 211.647 97.7179 211.541 97.6118C211.514 97.5852 211.514 97.5587 211.487 97.5322C211.487 97.5056 211.461 97.4791 211.461 97.426C211.461 97.373 211.461 97.3464 211.487 97.2933C211.514 97.2403 211.514 97.2137 211.541 97.1872C211.567 97.1607 211.594 97.1341 211.62 97.1076C211.647 97.0811 211.673 97.0811 211.726 97.0811C211.779 97.0811 211.832 97.1076 211.885 97.1341C211.938 97.1607 211.991 97.2137 212.044 97.2403C212.124 97.3199 212.23 97.373 212.336 97.426C212.442 97.4791 212.575 97.5587 212.707 97.6118C212.84 97.6648 212.973 97.6914 213.132 97.7445C213.291 97.771 213.477 97.7975 213.662 97.7975C213.874 97.7975 214.06 97.771 214.246 97.7445C214.431 97.6914 214.591 97.6383 214.723 97.5587C214.856 97.4791 214.962 97.373 215.041 97.2403C215.121 97.1076 215.148 96.9749 215.148 96.8157C215.148 96.6034 215.094 96.4442 214.988 96.285C214.882 96.1523 214.75 96.0196 214.591 95.94C214.431 95.8339 214.246 95.7543 214.034 95.7012C213.821 95.6216 213.609 95.5685 213.397 95.4889C213.158 95.4093 212.92 95.3297 212.707 95.2236C212.495 95.1174 212.283 95.0113 212.124 94.8786C211.965 94.7459 211.832 94.5867 211.726 94.4009C211.62 94.2152 211.567 94.0029 211.567 93.7375C211.567 93.4987 211.62 93.2599 211.753 93.0741C211.859 92.8619 212.018 92.7026 212.23 92.5434C212.416 92.4108 212.654 92.3046 212.893 92.225C213.132 92.1454 213.424 92.1189 213.689 92.1189C214.113 92.1189 214.484 92.1985 214.829 92.3311C215.174 92.4638 215.466 92.6761 215.731 92.968C215.758 92.9945 215.758 93.0211 215.784 93.0476C215.784 93.0742 215.784 93.1272 215.784 93.1538C215.784 93.1803 215.784 93.2334 215.758 93.2599C215.758 93.2864 215.731 93.3395 215.704 93.366C215.678 93.3926 215.651 93.4191 215.625 93.4457C215.598 93.4722 215.545 93.4722 215.492 93.4722C215.413 93.4722 215.307 93.4191 215.227 93.313C215.148 93.2334 215.041 93.1803 214.935 93.1007C214.829 93.0476 214.723 92.968 214.617 92.9415C214.484 92.8884 214.378 92.8619 214.246 92.8353C214.113 92.8088 213.954 92.7823 213.795 92.7823C213.636 92.7823 213.477 92.8088 213.317 92.8353C213.158 92.8619 212.999 92.9415 212.867 93.0211C212.734 93.1007 212.628 93.2068 212.548 93.3395C212.389 93.366 212.336 93.4987 212.336 93.6314Z" fill="white"/>
<path d="M9.70736 38.6493L5.30469 38.8615L15.5422 78.5591L9.70736 38.6493Z" fill="white"/>
<path d="M20.8993 30.8743H16.0723L19.6528 71.9517L20.8993 30.8743Z" fill="white"/>
<path d="M26.0978 26.8939H24.2943H22.146V30.8478V66.1669V71.6332C21.2442 76.1443 18.1942 79.8593 14.0833 81.6638L4.48224 44.2483L0 44.5137L10.211 82.7252L11.2454 86.626H11.2719C11.325 86.679 23.1538 86.679 24.0556 86.679H37.5288H41.4806V82.7252V78.7714V74.8175V64.1502V62.7438V58.7899V54.8361V50.8823V47.4857V38.7819V30.8478V29.4148V26.8939H26.0978ZM37.5553 38.7819V47.4857V50.8557V53.0051V54.8096V58.7634V61.1782V62.7172V64.1236V78.7448V82.6987H19.9446C23.0743 80.0982 25.3286 76.4362 26.1243 72.2966V30.8743H37.5553V38.7819Z" fill="white"/>
<path d="M14.4279 33.9259H10.4761L17.7962 75.0829L14.4279 33.9259Z" fill="white"/>
<path d="M33.2552 19.0304C38.1134 18.2415 41.4125 13.6617 40.6241 8.801C39.8356 3.94034 35.2582 0.639489 30.4 1.42834C25.5418 2.2172 22.2427 6.79703 23.0311 11.6577C23.8196 16.5184 28.3971 19.8192 33.2552 19.0304Z" fill="white"/>
</svg>
