<svg width="28" height="29" viewBox="0 0 28 29" fill="none" xmlns="http://www.w3.org/2000/svg">
<path d="M27.9117 12.8334C27.8675 12.4364 27.4084 12.1378 27.0115 12.1378C25.7286 12.1378 24.5902 11.3782 24.1127 10.2026C23.6253 8.99877 23.9398 7.59509 24.8955 6.71058C25.1966 6.43292 25.2333 5.968 24.9809 5.64527C24.3241 4.80411 23.578 4.04419 22.763 3.38566C22.4442 3.12767 21.9757 3.16358 21.699 3.47251C20.8646 4.40479 19.3656 4.75122 18.2073 4.2637C17.0023 3.75224 16.2417 2.52007 16.3164 1.19751C16.341 0.781819 16.0397 0.420609 15.6291 0.372358C14.5833 0.250203 13.5282 0.246661 12.4793 0.364051C12.0739 0.409248 11.7729 0.761908 11.7863 1.17235C11.8318 2.48196 11.0626 3.69239 9.86925 4.18552C8.72482 4.65716 7.23627 4.3133 6.40353 3.3892C6.12829 3.08479 5.66803 3.04741 5.34702 3.29991C4.50811 3.96406 3.74512 4.72447 3.08227 5.55878C2.82399 5.8831 2.86213 6.35315 3.16571 6.63179C4.14036 7.52217 4.45459 8.93794 3.94855 10.1558C3.4654 11.3169 2.27037 12.0648 0.902413 12.0648C0.458497 12.0504 0.142574 12.3513 0.0935322 12.7586C-0.0294952 13.8192 -0.0308272 14.9005 0.0875988 15.9699C0.131797 16.3686 0.604411 16.6647 1.0057 16.6647C2.22508 16.6334 3.39505 17.3944 3.88655 18.5997C4.37564 19.8036 4.0608 21.2066 3.10347 22.0924C2.80401 22.37 2.76575 22.8338 3.01858 23.1562C3.66871 23.9921 4.4156 24.7525 5.23295 25.4167C5.55384 25.6773 6.02052 25.6408 6.29867 25.3315C7.13637 24.397 8.6351 24.0512 9.78872 24.5397C10.9972 25.0498 11.7574 26.2819 11.6832 27.6048C11.6588 28.0205 11.9608 28.3828 12.37 28.43C12.9052 28.4931 13.4432 28.5244 13.9829 28.5244C14.4951 28.5244 15.0075 28.4962 15.5198 28.4386C15.9257 28.3934 16.2262 28.0404 16.2125 27.6299C16.1657 26.3209 16.9365 25.1103 18.1284 24.6181C19.2805 24.1435 20.7624 24.4909 21.5956 25.4136C21.8723 25.7174 22.3298 25.7543 22.6521 25.5028C23.4896 24.8403 24.2511 24.0803 24.9169 23.2438C25.1754 22.9201 25.1387 22.4494 24.8334 22.1703C23.859 21.2805 23.5431 19.8641 24.0491 18.6475C24.5248 17.5021 25.6754 16.733 26.9129 16.733L27.0861 16.7376C27.4878 16.7705 27.857 16.4584 27.9056 16.0449C28.0292 14.9832 28.0306 13.9031 27.9117 12.8334ZM13.9997 22.5435C9.54206 22.5435 5.92862 18.8983 5.92862 14.4015C5.92862 9.90479 9.54218 6.25958 13.9997 6.25958C18.4573 6.25958 22.0709 9.90479 22.0709 14.4015C22.0709 15.9278 21.6537 17.3555 20.9292 18.5763L17.3951 15.011C17.651 14.4024 17.7861 13.7426 17.786 13.0617C17.786 11.7284 17.2712 10.475 16.3365 9.53234C15.4021 8.58967 14.1596 8.07052 12.8381 8.07052C12.3971 8.07052 11.9582 8.12964 11.5335 8.2463C11.3475 8.29748 11.1954 8.45213 11.1459 8.64012C11.0953 8.8324 11.1523 9.02943 11.3013 9.1798C11.3013 9.1798 13.046 10.9535 13.6298 11.5423C13.691 11.604 13.6908 11.7511 13.6822 11.8042L13.6768 11.8429C13.618 12.4903 13.5045 13.2674 13.4109 13.5661C13.3983 13.5787 13.3864 13.5893 13.3736 13.6023C13.3601 13.6158 13.3478 13.6289 13.3348 13.6423C13.0349 13.7395 12.2527 13.8553 11.6007 13.9141L11.6008 13.9106L11.5715 13.918C11.5663 13.9187 11.5566 13.9194 11.5438 13.9194C11.4733 13.9194 11.3697 13.8995 11.2755 13.8046C10.6678 13.1916 8.99147 11.5126 8.99147 11.5126C8.84107 11.3614 8.6868 11.3296 8.584 11.3296C8.34436 11.3296 8.12979 11.5043 8.06222 11.7548C7.60075 13.4776 8.08995 15.3306 9.33924 16.591C10.2739 17.5338 11.5166 18.053 12.8383 18.053C13.5132 18.053 14.1672 17.9168 14.7704 17.6587L18.3429 21.2626C17.0886 22.0722 15.5992 22.5435 13.9997 22.5435Z" fill="white"/>
</svg>
